<svg width="16" height="16" viewBox="0 0 16 16" fill="none" xmlns="http://www.w3.org/2000/svg">
<path d="M10.6355 10.6355C10.8958 10.3751 11.3175 10.3751 11.5779 10.6355L14.4714 13.5286C14.7318 13.7889 14.7318 14.2111 14.4714 14.4714C14.2111 14.7318 13.7889 14.7318 13.5286 14.4714L10.6355 11.5779C10.3751 11.3175 10.3751 10.8958 10.6355 10.6355Z" fill="#717182"/>
<path d="M12 7.3335C12 4.75622 9.91075 2.66659 7.3335 2.6665C4.75617 2.6665 2.6665 4.75617 2.6665 7.3335C2.66659 9.91075 4.75622 12 7.3335 12C9.9107 11.9999 11.9999 9.9107 12 7.3335ZM13.3335 7.3335C13.3334 10.6471 10.6471 13.3334 7.3335 13.3335C4.01984 13.3335 1.33358 10.6471 1.3335 7.3335C1.3335 4.01979 4.01979 1.3335 7.3335 1.3335C10.6471 1.33358 13.3335 4.01984 13.3335 7.3335Z" fill="#717182"/>
</svg>
