<svg width="15" height="15" viewBox="0 0 15 15" fill="none" xmlns="http://www.w3.org/2000/svg">
<path d="M7.01774 0.8631C7.04695 0.804074 7.09209 0.754388 7.14804 0.71965C7.204 0.684912 7.26854 0.666504 7.33441 0.666504C7.40027 0.666504 7.46482 0.684912 7.52077 0.71965C7.57673 0.754388 7.62186 0.804074 7.65107 0.8631L9.19107 3.98243C9.29252 4.18775 9.44228 4.36537 9.62749 4.50007C9.8127 4.63477 10.0278 4.72251 10.2544 4.75577L13.6984 5.25977C13.7637 5.26922 13.825 5.29675 13.8754 5.33923C13.9258 5.38172 13.9634 5.43747 13.9838 5.50017C14.0041 5.56288 14.0066 5.63004 13.9908 5.69406C13.975 5.75808 13.9416 5.8164 13.8944 5.86243L11.4037 8.28777C11.2395 8.44783 11.1166 8.64542 11.0456 8.86352C10.9747 9.08162 10.9578 9.31369 10.9964 9.53977L11.5844 12.9664C11.5959 13.0317 11.5889 13.0988 11.5641 13.1602C11.5393 13.2216 11.4977 13.2748 11.4441 13.3138C11.3905 13.3527 11.3271 13.3758 11.261 13.3804C11.1949 13.385 11.1289 13.3709 11.0704 13.3398L7.99174 11.7211C7.78888 11.6146 7.56319 11.5589 7.33407 11.5589C7.10495 11.5589 6.87926 11.6146 6.67641 11.7211L3.59841 13.3398C3.53996 13.3707 3.474 13.3846 3.40804 13.3799C3.34208 13.3752 3.27875 13.3521 3.22527 13.3132C3.17179 13.2744 3.13029 13.2212 3.10551 13.1599C3.08073 13.0986 3.07364 13.0316 3.08507 12.9664L3.67241 9.54043C3.7112 9.31426 3.6944 9.08203 3.62343 8.8638C3.55247 8.64557 3.42948 8.44787 3.26507 8.28777L0.774406 5.8631C0.726802 5.81712 0.693069 5.7587 0.677048 5.69448C0.661027 5.63027 0.663364 5.56285 0.683792 5.49989C0.70422 5.43694 0.741918 5.38099 0.792591 5.33842C0.843264 5.29585 0.904875 5.26837 0.970406 5.2591L4.41374 4.75577C4.64058 4.72277 4.856 4.63514 5.04146 4.50042C5.22693 4.36571 5.37687 4.18795 5.47841 3.98243L7.01774 0.8631Z" fill="#D1D5DC"/>
<path d="M7.40531 0.00244141C7.54694 0.0123109 7.68503 0.0514054 7.81058 0.117676L7.87259 0.15332L7.93168 0.192871C8.04677 0.275996 8.1432 0.382328 8.21488 0.504883L8.24857 0.567383L8.24906 0.567871L9.7891 3.6875C9.84276 3.7959 9.92174 3.88979 10.0196 3.96094C10.1175 4.03217 10.2313 4.07859 10.3511 4.09619L13.795 4.6001C13.9597 4.62404 14.1152 4.68791 14.2491 4.78564L14.3047 4.82959L14.3579 4.87695C14.477 4.99238 14.5662 5.13557 14.6177 5.29395C14.6766 5.47489 14.6837 5.66876 14.6382 5.85352C14.5926 6.03833 14.4962 6.20696 14.3599 6.33984L11.8687 8.76562C11.782 8.85023 11.7172 8.95462 11.6797 9.06982C11.6422 9.1851 11.633 9.30775 11.6534 9.42725L12.2408 12.8506L12.251 12.9214C12.2684 13.087 12.2448 13.2551 12.1822 13.4102C12.1106 13.5873 11.9906 13.7407 11.836 13.853C11.6813 13.9654 11.4979 14.0321 11.3072 14.0454C11.1165 14.0587 10.9256 14.0181 10.7569 13.9282L7.68168 12.311C7.57448 12.2548 7.45508 12.2256 7.33402 12.2256C7.21289 12.2256 7.09361 12.2552 6.98636 12.3115L6.98588 12.311L3.9097 13.9287L3.91019 13.9292C3.74155 14.0184 3.55119 14.0584 3.36088 14.0449C3.17045 14.0314 2.98743 13.9648 2.83304 13.8525C2.67866 13.7403 2.55889 13.5867 2.48734 13.4097C2.41583 13.2327 2.39528 13.0391 2.42826 12.8511L3.01517 9.42773L3.02543 9.3374C3.02979 9.24707 3.01741 9.1563 2.98929 9.06982C2.95176 8.9545 2.88673 8.84975 2.79984 8.76514L0.311559 6.34229C0.174172 6.20958 0.0765673 6.04128 0.0303094 5.85596C-0.0159386 5.67058 -0.00913031 5.47567 0.0498407 5.29395C0.108822 5.11232 0.217599 4.95097 0.363806 4.82812L0.419958 4.78418C0.535395 4.70021 0.667085 4.64116 0.806677 4.61133L0.876989 4.59912L4.31742 4.09619C4.43727 4.07873 4.55144 4.0321 4.64945 3.96094C4.74739 3.8898 4.82673 3.796 4.88041 3.6875L6.41996 0.567871L6.42045 0.567383C6.50478 0.397021 6.63492 0.253589 6.79642 0.15332L6.85795 0.117676C7.00443 0.0403094 7.16813 0 7.33451 0L7.40531 0.00244141ZM6.07621 4.27734C5.92683 4.57968 5.70599 4.84185 5.43314 5.04004C5.16036 5.23813 4.84341 5.36648 4.5098 5.41504L1.6934 5.82715L3.73002 7.81006C3.9719 8.04561 4.15295 8.33664 4.25736 8.65771C4.36175 8.97878 4.3867 9.32057 4.32963 9.65332L3.84916 12.4541L6.36625 11.1309L6.48002 11.0757C6.74809 10.9551 7.0391 10.8921 7.33402 10.8921C7.62892 10.8921 7.91996 10.9551 8.18802 11.0757L8.30179 11.1309L10.8199 12.4546L10.3394 9.65234C10.2826 9.31983 10.3073 8.978 10.4117 8.65723C10.516 8.33645 10.6969 8.04599 10.9385 7.81055L12.9742 5.82715L10.1578 5.41553C9.82444 5.3666 9.50783 5.23721 9.23539 5.03906C8.96298 4.84093 8.74252 4.57982 8.5933 4.27783L7.33451 1.72754L6.07621 4.27734Z" fill="#D1D5DC"/>
</svg>
